PathFileType	4	(X/Y/Z)	C:/Users/beibeiliu/ov580/test_trc/User1\sequence.38_training_dense_left.trc
DataRate	CameraRate	NumFrames	NumMarkers	Units	OrigDataRate	OrigDataStartFrame	OrigNumFrames
120	120	17	19	mm	120	188	500
Frame#	Time	ThumbCMC			ThumbMCP			ThumbIP			ThumbTip			IndexMCP			IndexPIP			IndexTip			MiddleMCP			MiddlePIP			MiddleTip			RingMCP			RingPIP			RingTip			PinkyMCP			PinkyPIP			PinkyTip			BackHand1			BackHand2			BackHand3	
		X0	Y0	Z0	X1	Y1	Z1	X2	Y2	Z2	X3	Y3	Z3	X4	Y4	Z4	X5	Y5	Z5	X6	Y6	Z6	X7	Y7	Z7	X8	Y8	Z8	X9	Y9	Z9	X10	Y10	Z10	X11	Y11	Z11	X12	Y12	Z12	X13	Y13	Z13	X14	Y14	Z14	X15	Y15	Z15	X16	Y16	Z16	X17	Y17	Z17	X18	Y18	Z18	
187	1.55833	-79.6565	-50.3685	64.7799	-62.7446	-71.6195	45.7043	-47.2527	-84.2975	23.414	-38.0192	-95.9909	6.57435	-81.4732	-32.5354	-21.0531	-76.954	-38.8147	-45.8529	-78.5258	-59.9009	-72.5366	-105.951	-21.4752	-28.2449	-108.298	-22.1979	-56.2745	-108.555	-27.6732	-84.3315	-129.168	-22.9697	-22.2697	-130.132	-19.1592	-48.1302	-133.372	-19.7713	-72.1467	-159.748	-35.8916	-4.26755	-164.935	-31.214	-22.8575	-167.505	-22.2344	-45.3874	-133.384	-24.5335	32.1252	-142.295	-21.4784	64.8797	-106.509	-19.7717	50.2599	
188	1.56667	-77.559	-49.319	64.2189	-59.3493	-70.6671	42.5159	-48.1225	-81.0543	18.6415	-43.0834	-93.3535	-1.21903	-79.9529	-29.7592	-19.9433	-75.641	-38.5724	-46.5436	-79.2333	-62.2719	-69.6718	-110.427	-19.9694	-24.8569	-105.567	-21.1088	-55.8329	-105.229	-27.6023	-89.9898	-132.877	-21.3141	-21.9494	-133.206	-17.238	-49.854	-131.398	-19.3678	-76.7121	-157.119	-33.7859	-7.31393	-164.593	-30.6737	-22.2881	-168.947	-22.5048	-44.3868	-138.8	-20.6898	31.4972	-141.751	-20.6158	69.0141	-105.698	-17.8089	49.8287	
189	1.575	-77.1837	-49.1616	62.2274	-63.4608	-68.609	38.8925	-49.4839	-80.7692	17.0859	-43.2172	-92.8972	-5.64633	-77.4706	-27.6528	-17.7819	-74.1409	-39.347	-48.3681	-75.1653	-63.7956	-66.1246	-107.408	-17.6585	-26.3293	-106.937	-19.5703	-56.6369	-107.365	-28.3752	-88.999	-128.493	-19.3971	-23.6217	-133.169	-16.2474	-53.4933	-130.045	-18.543	-79.2163	-157.835	-32.3687	-7.66882	-160.371	-30.2266	-24.9603	-165.413	-20.9076	-49.4012	-134.975	-20.2465	36.6308	-141.814	-19.795	69.149	-103.335	-19.6962	52.4516	
190	1.58333	-74.3198	-49.0123	61.7177	-59.4251	-69.293	35.854	-49.8796	-78.9571	11.6263	-44.9496	-90.2766	-8.40317	-78.4992	-27.3497	-18.554	-77.7318	-40.7771	-47.4894	-75.4928	-70.8085	-63.342	-107.018	-16.1231	-28.4488	-102.707	-19.1331	-60.574	-106.324	-29.5524	-88.6264	-133.782	-20.2956	-22.0694	-129.31	-16.6835	-51.7007	-131.982	-20.0687	-79.1911	-155.258	-33.5936	-4.20493	-160.305	-28.9714	-27.6553	-164.245	-19.375	-52.8782	-137.961	-21.1831	30.5994	-142.506	-20.8323	63.9529	-102.673	-18.6962	55.1256	
191	1.59167	-77.2934	-47.7477	59.0729	-60.9022	-68.286	38.8981	-52.6108	-77.2947	14.202	-50.3644	-87.3875	-10.4128	-77.4193	-27.4738	-20.8749	-73.7459	-43.356	-49.1058	-77.4199	-73.1414	-58.7495	-106.479	-14.8069	-28.4883	-106.023	-18.0211	-58.3502	-104.176	-30.9093	-90.71	-127.175	-17.3865	-25.0874	-130.547	-16.4513	-54.0461	-130.559	-21.1617	-79.5887	-152.785	-31.8582	-7.50091	-160.375	-27.5868	-27.0755	-161.212	-21.7277	-55.0334	-137.27	-18.6877	31.9999	-141.538	-19.6998	63.7164	-106.866	-18.2801	54.1531	
192	1.6	-74.2815	-49.3373	62.2892	-58.9613	-67.6858	35.9825	-54.3133	-74.882	9.60376	-48.8886	-88.211	-14.2384	-75.4326	-26.1923	-22.5762	-76.3536	-42.8733	-46.5975	-73.2995	-77.1246	-53.9289	-106.609	-14.074	-25.9666	-105.93	-18.5453	-58.1673	-103.828	-29.8407	-87.9119	-130.577	-17.6891	-24.6869	-129.519	-15.0465	-54.0662	-124.47	-20.5397	-80.7105	-157.299	-31.9714	-6.08385	-162.224	-27.3875	-26.6349	-164.364	-20.393	-52.5608	-136.634	-20.1941	35.5319	-138.744	-21.8321	69.3549	-104.44	-18.1924	54.5863	
193	1.60833	-74.7406	-48.859	64.2579	-63.1815	-67.9528	36.1078	-55.2373	-74.6828	7.16896	-49.1529	-86.8774	-13.3601	-74.857	-26.1961	-23.1967	-72.3627	-45.2812	-46.0691	-77.7043	-78.8134	-50.8897	-104.658	-13.4756	-30.4446	-104.487	-17.5924	-57.8438	-103.449	-30.9978	-88.0645	-130.904	-16.7953	-25.8422	-127.635	-15.3143	-54.0079	-126.847	-20.5166	-76.9248	-152.38	-31.0681	-5.19061	-161.411	-26.7304	-27.549	-163.229	-20.2261	-56.1961	-137.393	-19.4118	31.8388	-143.638	-19.5419	67.6597	-102.736	-17.3464	54.1371	
194	1.61667	-77.4871	-48.463	59.6369	-61.3327	-67.3907	34.8597	-57.0983	-75.0211	10.339	-55.3706	-83.03	-15.4918	-76.6314	-26.3544	-21.8508	-72.4413	-49.1765	-46.4936	-74.7487	-77.6296	-47.34	-103.607	-12.7415	-27.9825	-102.137	-17.5101	-60.4462	-102.773	-30.5167	-86.729	-130.232	-16.7591	-21.735	-128.857	-14.9371	-51.0567	-124.248	-20.9073	-81.039	-154.288	-30.835	-5.67382	-158.575	-27.2605	-31.1148	-160.058	-20.7874	-55.7495	-137.744	-19.3191	35.0242	-141.733	-22.5801	67.8326	-105.872	-17.3919	56.2452	
195	1.625	-77.8989	-50.2988	62.9717	-63.8138	-67.8808	36.3946	-55.8784	-73.5685	7.25401	-54.5866	-85.1127	-13.9112	-75.4941	-25.2653	-18.9732	-73.6344	-50.0411	-46.3757	-76.6377	-80.8297	-42.5186	-104.123	-11.6249	-28.7967	-103.787	-15.8484	-56.4256	-98.4306	-31.9791	-89.0562	-131.626	-16.8831	-22.1753	-129.601	-14.3434	-51.2795	-125.906	-19.973	-77.112	-153.67	-30.2438	-8.57328	-157.04	-26.5599	-27.5412	-157.525	-21.5254	-56.514	-136.101	-17.6264	34.2176	-139.848	-20.9741	65.039	-104.73	-15.7009	51.8235	
196	1.63333	-79.9725	-48.8873	61.0014	-64.1649	-67.7209	36.9332	-56.1744	-75.5764	9.19808	-55.115	-84.1358	-19.7633	-73.8869	-25.1752	-19.6449	-74.4426	-46.7779	-43.5591	-78.9373	-81.8114	-38.3439	-104.017	-11.4605	-25.996	-101.813	-17.294	-60.3518	-93.9942	-31.2872	-89.6495	-129.032	-14.5937	-23.8599	-122.81	-13.0586	-54.2291	-121.257	-18.9352	-78.5589	-152.303	-29.6858	-8.37425	-157.545	-25.8042	-29.9699	-160.131	-20.9594	-55.5144	-137.802	-17.7559	33.8135	-142.863	-19.3339	66.7468	-102.556	-16.7437	56.2293	
197	1.64167	-75.3718	-48.4399	61.1466	-63.7614	-68.259	36.318	-58.5464	-73.8737	5.59707	-55.5748	-84.8529	-18.3508	-72.5688	-26.0799	-22.0943	-73.5094	-51.8972	-43.9554	-76.438	-81.3565	-35.2801	-104.875	-11.1989	-27.5103	-96.507	-15.7401	-56.7201	-93.3278	-30.9473	-89.6862	-126.97	-14.2832	-23.8391	-122.617	-13.0556	-52.3957	-123.697	-19.3948	-78.4283	-152.235	-28.317	-9.11451	-157.69	-25.8876	-30.5167	-159.473	-17.9878	-52.877	-134.819	-17.2652	32.8482	-142.042	-22.1403	68.3482	-104.48	-16.1651	52.1982	
198	1.65	-74.91	-50.0478	63.6052	-64.8223	-67.3155	33.9597	-57.7042	-75.048	8.35322	-56.8537	-82.9952	-18.9649	-74.3185	-26.0168	-19.307	-69.7797	-50.8279	-43.2315	-78.5969	-82.8464	-32.877	-103.679	-11.1947	-31.6584	-99.3755	-17.2513	-61.6706	-93.2702	-31.1554	-89.336	-129.679	-14.5176	-23.252	-126.74	-13.2275	-54.8057	-121.005	-18.3078	-77.3566	-153.78	-28.9038	-6.79988	-159.3	-25.0671	-29.2859	-161.041	-18.3009	-52.5069	-135.992	-16.1704	30.5282	-140.129	-21.3131	65.9054	-104.158	-16.0381	55.4907	
199	1.65833	-78.7745	-48.7217	59.0016	-64.3147	-65.38	31.1939	-56.7464	-72.9784	2.46889	-57.2178	-82.199	-17.4442	-75.4251	-26.8205	-23.3446	-72.7361	-51.8982	-42.3307	-76.5297	-84.3241	-30.5902	-100.497	-10.4831	-30.1418	-98.4341	-16.6166	-57.5945	-96.5129	-30.0337	-86.7563	-126.529	-13.9811	-23.3821	-123.613	-13.2639	-52.3952	-122	-19.4802	-80.0248	-155.688	-27.2408	-11.8637	-157.023	-24.6354	-28.64	-162.215	-19.8866	-52.9447	-131.802	-17.3733	31.6829	-140.772	-20.5412	66.1845	-99.3826	-14.3871	52.3944	
200	1.66667	-76.6487	-48.4229	58.6542	-62.8772	-65.6514	30.9643	-55.1915	-73.7444	3.70211	-58.4873	-80.5293	-19.1213	-74.7336	-27.4794	-24.3713	-70.6911	-51.6378	-41.9498	-75.3519	-85.2633	-29.3619	-104.947	-10.9004	-26.6642	-94.4807	-15.9703	-60.7202	-96.9747	-31.3594	-87.413	-124.883	-14.1251	-20.7382	-124.978	-12.1647	-50.7863	-119.716	-19.1078	-79.263	-152.233	-27.9848	-8.30894	-157.485	-24.7726	-29.9616	-162.594	-17.7198	-55.7388	-135.411	-18.4205	35.077	-142.459	-21.2044	67.036	-105.429	-15.7364	56.1391	
201	1.675	-74.9134	-48.8858	58.7511	-59.1048	-68.9588	34.4796	-55.5324	-73.6475	7.27567	-55.7908	-82.4111	-17.1496	-75.5542	-27.4595	-21.1982	-72.511	-55.8916	-42.0663	-77.1493	-83.4054	-30.0466	-100.116	-9.73884	-27.7031	-95.1415	-16.7762	-61.0552	-94.7477	-30.0219	-87.6393	-128.809	-12.6026	-25.08	-126.31	-12.7737	-55.2136	-122.458	-19.2663	-82.2412	-154.288	-27.1087	-9.70841	-160.109	-23.5214	-33.193	-161.395	-18.8415	-54.9323	-134.36	-16.4076	31.1922	-139.048	-21.1081	68.6326	-103.434	-15.2618	56.7846	
202	1.68333	-75.659	-50.5855	63.0476	-64.091	-65.1434	30.8638	-57.0312	-72.4702	5.39434	-54.0332	-83.5184	-18.262	-71.9611	-26.8685	-18.1883	-68.8153	-54.0631	-42.3797	-78.1892	-83.3275	-31.0289	-98.9094	-10.3446	-25.652	-92.316	-15.6219	-60.5017	-96.2627	-29.9733	-86.3645	-122.967	-13.0669	-23.4942	-121.642	-12.0115	-50.6169	-120.105	-19.3911	-77.6075	-152.258	-26.7105	-12.4233	-157.456	-23.8127	-28.7481	-161.12	-17.2065	-53.9015	-130.826	-16.9952	31.5502	-137.114	-18.5674	66.8064	-101.82	-16.1829	52.1007	
203	1.69167	-73.5854	-49.2756	60.0116	-59.6554	-67.7621	30.3032	-54.1155	-74.3438	3.68591	-57.0284	-81.3927	-17.7887	-73.7548	-26.3081	-19.9685	-68.1301	-49.6518	-42.5273	-77.4942	-82.9595	-32.9971	-99.5747	-10.8151	-25.6185	-92.5544	-15.563	-58.3828	-90.8412	-30.6433	-85.8633	-126.575	-13.7815	-23.3602	-120.958	-12.9231	-55.9372	-121.917	-18.8864	-81.9365	-150.893	-27.5633	-7.95748	-156.692	-23.439	-31.9101	-158.205	-17.9159	-52.8897	-133.369	-16.4737	30.9705	-141.744	-18.8433	67.1381	-98.272	-16.516	53.3892	
